<?xml version="1.0" encoding="UTF-8" standalone="no"?>
<!DOCTYPE svg PUBLIC "-//W3C//DTD SVG 1.1//EN" "http://www.w3.org/Graphics/SVG/1.1/DTD/svg11.dtd">
<svg width="100%" height="100%" viewBox="0 0 1920 1920" version="1.1" xmlns="http://www.w3.org/2000/svg" xmlns:xlink="http://www.w3.org/1999/xlink" xml:space="preserve" xmlns:serif="http://www.serif.com/" style="fill-rule:evenodd;clip-rule:evenodd;stroke-linejoin:round;stroke-miterlimit:2;">
    <g transform="matrix(1,0,0,1,-3112.96437,0)">
        <g id="Solo-logo" serif:id="Solo logo" transform="matrix(1,0,0,1,3112.96437,0)">
            <rect x="0" y="0" width="1920" height="1920" style="fill:none;"/>
            <g transform="matrix(1.68438,0,0,1.68438,-627.505297,-543.147095)">
                <path d="M756.54,1024.097C717.332,978.209 693.646,918.67 693.646,853.642C693.646,816.702 701.289,781.534 715.079,749.634L772.415,787.528C765.021,808.191 760.992,830.45 760.992,853.642C760.992,936.185 812.017,1006.904 884.219,1035.952L875.911,1151.374L756.54,1024.097Z"/>
                <path d="M1197.459,749.634C1211.248,781.534 1218.891,816.702 1218.891,853.642C1218.891,918.67 1195.205,978.209 1155.998,1024.097L1036.627,1151.374L1028.382,1036.835C1101.762,1008.357 1153.841,937.033 1153.841,853.642C1153.841,829.991 1149.652,807.311 1141.976,786.303L1197.459,749.634Z"/>
                <path d="M956.269,1237.054L919.873,1198.247L925.9,1114.523C935.864,1115.673 945.998,1116.264 956.269,1116.264C966.539,1116.264 976.673,1115.673 986.638,1114.523L992.665,1198.247L956.269,1237.054Z"/>
                <path d="M736.536,709.834C776.485,648.952 841.046,605.639 916.027,594.089C929.147,592.068 942.586,591.019 956.269,591.019C969.951,591.019 983.391,592.068 996.511,594.089C1071.491,605.639 1136.052,648.952 1176.001,709.834L1121.578,745.803C1094.19,704.217 1051.429,673.635 1001.412,662.172C987.266,658.93 972.54,657.217 957.417,657.217C941.459,657.217 925.944,659.124 911.086,662.722C861.652,674.694 819.497,705.388 792.563,746.862L736.536,709.834Z" style="fill:rgb(17,107,252);"/>
                <path d="M1004.074,699.153C1040.431,710.385 1071.201,734.396 1091.128,765.928L1046.922,795.144C1037.26,780.21 1024.009,767.81 1008.394,759.17C992.939,750.617 975.168,745.748 956.269,745.748C937.369,745.748 919.598,750.617 904.143,759.17C888.528,767.81 875.277,780.21 865.615,795.144L823.034,767.001C842.512,735.626 872.669,711.56 908.41,699.899C923.841,694.864 940.314,692.142 957.417,692.142C973.655,692.142 989.324,694.596 1004.074,699.153Z" style="fill:rgb(16,110,252);"/>
                <path d="M978.884,1006.805C971.864,1007.76 964.697,1008.253 957.417,1008.253C949.349,1008.253 941.421,1007.647 933.677,1006.479L937.036,959.823C943.277,960.948 949.705,961.536 956.269,961.536C962.833,961.536 969.26,960.948 975.502,959.823L978.884,1006.805Z"/>
                <g transform="matrix(1.240807,0,0,1.240807,-230.278862,-160.410556)">
                    <path d="M978.884,1006.805C971.864,1007.76 964.697,1008.253 957.417,1008.253C949.349,1008.253 941.421,1007.647 933.677,1006.479L937.036,959.823C943.277,960.948 949.705,961.536 956.269,961.536C962.833,961.536 969.26,960.948 975.502,959.823L978.884,1006.805Z"/>
                </g>
                <g transform="matrix(0.877939,0,0,0.877939,116.723268,93.859506)">
                    <path d="M911.332,825.359C920.739,810.453 937.356,800.543 956.269,800.543C975.182,800.543 991.799,810.453 1001.206,825.359C1006.375,833.55 1009.367,843.249 1009.367,853.642C1009.367,862.331 1007.275,870.536 1003.568,877.779C997.034,890.547 985.482,900.328 971.52,904.513C966.689,905.962 961.569,906.74 956.269,906.74C950.968,906.74 945.848,905.962 941.017,904.513C927.056,900.328 915.503,890.547 908.969,877.779C905.262,870.536 903.17,862.331 903.17,853.642C903.17,843.249 906.162,833.55 911.332,825.359Z" style="fill:rgb(13,104,251);"/>
                </g>
            </g>
        </g>
    </g>
</svg>
