<?xml version="1.0" encoding="UTF-8" standalone="no"?>
<!DOCTYPE svg PUBLIC "-//W3C//DTD SVG 1.1//EN" "http://www.w3.org/Graphics/SVG/1.1/DTD/svg11.dtd">
<svg width="100%" height="100%" viewBox="0 0 1920 1920" version="1.1" xmlns="http://www.w3.org/2000/svg" xmlns:xlink="http://www.w3.org/1999/xlink" xml:space="preserve" xmlns:serif="http://www.serif.com/" style="fill-rule:evenodd;clip-rule:evenodd;stroke-linejoin:round;stroke-miterlimit:2;">
    <g transform="matrix(1,0,0,1,-5636.287209,-4514.510803)">
        <g id="Full-horizontal" serif:id="Full horizontal" transform="matrix(1,0,0,1,5636.287209,4514.510803)">
            <rect x="0" y="0" width="1920" height="1920" style="fill:none;"/>
            <g transform="matrix(1,0,0,1,129.724403,-380.576111)">
                <g transform="matrix(2.7194,0,0,2.7194,125.144326,1253.387784)">
                    <path d="M410.002,66.759C408.655,66.622 408.654,66.561 408.548,66.611C408.503,66.632 405.644,70.062 400.531,70.732C384.861,72.786 376.393,57.417 381.024,43.344C385.574,29.518 400.952,28.446 407.517,34.478C408.401,35.29 408.309,35.632 409.51,35.523C410.373,35.444 409.975,35.013 409.992,34.82C410.004,34.679 410.184,34.591 410.199,34.451C410.236,34.107 410.102,33.758 410.144,33.415C410.286,32.251 410.43,32.206 411.563,31.861C411.639,31.837 416.601,31.709 417.691,32.145C419.069,32.696 418.731,36.263 418.731,36.503C418.776,72.382 418.799,72.389 418.295,75.465C417.513,80.227 414.373,84.284 412.525,85.532C406.926,89.314 401.799,90.525 393.433,88.816C384.783,87.05 380.506,77.962 382.177,76.215C382.648,75.722 383.297,75.622 386.468,75.251C390.132,74.822 390.081,75.642 390.927,77.266C394.445,84.022 409.108,84.098 409.907,72.529C409.934,72.133 410.173,68.678 410.11,67.577C410.103,67.44 409.917,67.359 409.898,67.223C409.878,67.066 410.023,66.916 410.002,66.759ZM398.473,62.923C398.813,62.922 409.081,64.14 410.066,52.491C410.749,44.403 406.243,41.216 405.411,40.628C400.939,37.465 388.519,37.41 388.837,51.49C389.084,62.445 397.445,62.794 398.473,62.923Z" style="fill:rgb(17,107,252);"/>
                </g>
                <g transform="matrix(2.7194,0,0,2.7194,125.144326,1253.387784)">
                    <path d="M334.451,71.915C332.354,71.613 330.203,71.461 325.477,68.535C320.595,65.512 317.349,57.401 318.776,55.745C319.131,55.333 319.608,54.779 325.501,54.71C327.629,54.685 327.757,57.095 328.41,58.543C332.034,66.578 350.033,66.313 351.177,57.436C352.651,46.003 336.742,48.828 325.504,41.494C322.53,39.553 320.079,35.44 319.81,31.475C318.692,15.014 336.75,12.201 347.499,15.502C354.062,17.517 358.211,22.581 358.878,27.439C359.127,29.253 359.186,29.681 357.415,30.145C356.787,30.31 356.127,30.305 355.484,30.397C352.715,30.792 352.722,30.803 352.508,30.806C348.629,30.873 351.4,26.755 345.42,23.664C340.809,21.28 335.232,22.857 334.381,23.098C329.728,24.413 328.212,28.224 329.064,31.607C331.457,41.101 358.207,36.026 360.243,53.541C361.686,65.956 351.803,70.896 346.555,71.782C339.618,72.953 336.519,72.178 334.451,71.915Z" style="fill:rgb(17,106,252);"/>
                </g>
                <g transform="matrix(2.7194,0,0,2.7194,125.144326,1253.387784)">
                    <path d="M88.072,27.438C88.151,27.037 88.712,24.191 89.651,22.587C89.794,22.343 90.6,20.964 91.776,19.771C97.264,14.202 106.605,13.658 111.486,14.575C117.827,15.767 119.107,16.864 121.51,18.488C125.215,20.993 128.292,28.075 126.656,29.668C126.301,30.014 123.745,30.365 123.487,30.4C120.503,30.81 120.511,30.809 120.502,30.809C117.208,30.834 118.967,27.911 115.294,24.767C110.939,21.038 98.31,21.084 96.929,28.587C95.161,38.194 110.945,37.28 121.215,42.985C121.451,43.116 127.305,46.59 128.188,52.554C130.138,65.726 120.395,69.642 119.748,69.979C112.788,73.615 103.815,72.033 102.443,71.886C96.88,71.291 88.195,67.226 86.582,57.486C86.14,54.817 88.262,55.046 92.527,54.793C95.608,54.61 95.271,55.673 96.403,58.543C96.436,58.627 98.467,63.457 105.553,64.136C118.103,65.338 120.766,58.136 118.845,53.349C115.606,45.28 94.296,47.722 89.228,36.628C87.26,32.317 87.947,28.807 88.072,27.438Z" style="fill:white;"/>
                </g>
                <g transform="matrix(2.7194,0,0,2.7194,125.144326,1253.387784)">
                    <path d="M190.07,56.571C189.219,48.494 189.983,46.296 191.067,43.344C191.274,42.78 192.488,39.477 194.907,36.895C202.376,28.921 218.107,28.272 225.296,39.626C227.695,43.414 228.543,49.531 228.217,52.463C227.994,54.466 226.623,54.375 221.499,54.391C202.148,54.452 202.166,54.284 200.487,54.367C200.089,54.386 197.165,54.53 199.857,59.303C204.212,67.027 214.476,65.418 217.486,61.487C219.236,59.201 219.414,58.96 222.524,59.271C225.964,59.614 227.931,59.36 226.538,62.518C221.166,74.702 200.872,75.707 193.411,64.563C190.714,60.535 190.584,58.414 190.07,56.571ZM208.504,47.862C217.119,47.825 217.12,47.905 217.56,47.849C218.769,47.694 218.971,47.68 219.184,46.477C219.371,45.42 217.682,42.794 217.495,42.504C215.323,39.129 209.692,37.395 204.517,39.539C200.743,41.103 197.835,46.128 199.479,47.529C199.958,47.937 202.905,47.873 208.504,47.862Z" style="fill:white;"/>
                </g>
                <g transform="matrix(2.7194,0,0,2.7194,125.144326,1253.387784)">
                    <path d="M257.567,71.882C255.28,72.22 245.349,74.269 238.094,65.854C230.16,56.652 230.69,35.542 248.476,31.382C252.958,30.334 267.443,30.383 271.158,45.586C271.318,46.241 272.923,52.811 271.13,54.003C270.58,54.369 270.535,54.373 252.499,54.421C245.785,54.439 242.663,53.888 242.299,55.434C242.087,56.336 242.987,59.317 244.763,61.25C247.924,64.691 256.358,67.512 261.704,60.656C263.042,58.939 263.779,58.946 268.494,59.545C271.253,59.895 270.83,61.054 269.572,63.539C266.353,69.905 258.708,71.625 257.567,71.882ZM251.501,47.85C252.186,47.851 252.564,47.846 254.492,47.855C256.342,47.864 256.334,47.867 256.495,47.868C261.068,47.884 264.197,48.757 262.243,44.612C261.765,43.598 258.523,36.722 249.37,39.059C244.437,40.318 241.701,46.091 242.682,47.346C243.199,48.007 245.165,47.87 251.501,47.85Z" style="fill:white;"/>
                </g>
                <g transform="matrix(2.7194,0,0,2.7194,125.144326,1253.387784)">
                    <path d="M503.032,48.495C503.031,48.926 502.911,65.76 503.093,68.527C503.32,71.971 501.94,71.606 498.498,71.571C498.274,71.569 496.31,71.548 495.727,71.166C495.166,70.797 495.052,69.757 495.037,69.622C494.911,68.473 495.399,68.224 494.46,67.557C494.199,67.372 493.791,67.367 493.501,67.503C492.738,67.861 488.693,74.263 477.422,71.826C466.274,69.416 464.431,53.325 476.42,49.281C483.551,46.876 492.166,48.382 493.483,47.473C495.197,46.291 494.564,38.172 485.501,38.556C478.604,38.849 478.727,43.534 477.309,44.1C476.507,44.42 470.629,44.213 469.953,43.179C468.566,41.062 472.578,32.587 482.453,31.202C489.731,30.181 500.979,32.122 502.776,43.447C502.839,43.846 502.907,44.275 503.032,48.495ZM483.506,65.097C484.343,65.071 487.737,65.304 490.799,62.882C495.095,59.483 494.494,54.814 493.59,54.374C492.681,53.93 481.808,53.351 478.574,56.573C476.572,58.567 477.217,61.453 477.792,62.348C479.517,65.029 482.597,64.985 483.506,65.097Z" style="fill:rgb(18,107,252);"/>
                </g>
                <g transform="matrix(2.7194,0,0,2.7194,125.144326,1253.387784)">
                    <path d="M462.104,57.501C462.109,70.16 462.105,70.173 462.02,70.372C461.96,70.514 461.594,71.369 460.511,71.57C460.354,71.599 455.205,71.66 454.515,71.455C453.141,71.047 453.267,70.268 453.265,60.504C453.262,47.634 453.734,44.635 451.243,41.725C447.08,36.86 438.814,38.763 436.409,43.451C434.414,47.34 435.361,47.603 435.066,68.485C435.016,72.064 433.476,71.606 429.5,71.6C428.227,71.597 426.343,71.846 426.179,69.54C426.162,69.301 426.148,33.834 426.22,33.449C426.527,31.81 428.45,31.845 428.513,31.841C433.466,31.517 434.032,32.262 434.316,32.635C434.642,33.064 434.504,35.403 434.558,35.474C434.751,35.731 435.173,35.662 435.475,35.772C435.692,35.852 435.916,36.163 436.114,36.043C436.409,35.864 435.824,35.249 439.25,33.073C444.264,29.888 455.607,29.336 460.297,38.604C462.456,42.872 462.093,49.322 462.104,57.501Z" style="fill:rgb(19,108,252);"/>
                </g>
                <g transform="matrix(2.7194,0,0,2.7194,125.144326,1253.387784)">
                    <path d="M281.07,56.496C281.088,44.715 281.024,40.91 280.827,40.34C280.316,38.866 276.726,39.221 276.526,39.211C274.205,39.101 274.313,37.516 274.364,34.499C274.431,30.493 276.95,32.498 279.458,31.414C281.969,30.328 282.259,23.437 283.399,22.39C284.104,21.744 287.152,21.812 287.481,21.819C287.644,21.823 288.862,21.85 289.358,22.591C290.1,23.703 289.397,29.832 290.029,30.768C290.935,32.11 292.043,31.734 295.492,31.782C298.766,31.828 300.058,31.242 300.117,34.514C300.133,35.431 300.279,37.556 299.668,38.645C299.092,39.675 292.691,39.081 291.466,39.273C291.299,39.299 290.066,39.492 289.81,40.577C289.634,41.322 289.719,56.146 289.726,57.5C289.778,66.426 296.873,62.91 299.264,63.987C300.526,64.556 300.211,69.731 299.787,70.678C299.539,71.231 299.429,71.768 292.497,71.594C279.286,71.261 281.076,57.796 281.07,56.496Z" style="fill:white;"/>
                </g>
                <g transform="matrix(2.7194,0,0,2.7194,125.144326,1253.387784)">
                    <path d="M153.501,63.794C155.975,63.938 156.093,63.676 156.706,64.269C157.414,64.954 157.311,66.063 157.322,66.505C157.423,70.577 157.441,71.537 154.501,71.584C150.037,71.656 148.076,71.661 145.395,70.803C144.641,70.562 140.004,69.078 138.778,63.432C138.439,61.873 138.226,60.888 138.323,43.497C138.341,40.377 138.636,39.283 135.51,39.233C134.851,39.223 134.19,39.25 133.532,39.21C132.833,39.167 132.786,39.243 132.272,38.743C131.528,38.018 131.69,35.805 131.695,34.501C131.709,30.969 133.521,32.028 135.53,31.751C139.26,31.236 139.23,25.641 140.165,23.34C141.05,21.16 145.891,21.754 146.495,22.504C147.218,23.402 146.618,29.279 147.131,30.669C147.67,32.13 150.515,31.793 153.497,31.824C156.326,31.853 157.258,31.663 157.296,34.503C157.341,37.859 157.224,38.236 156.713,38.724C155.711,39.679 149.814,38.992 148.449,39.281C147.354,39.514 147.003,40.454 146.947,40.604C146.933,40.643 146.856,40.707 146.862,47.504C146.871,59.64 146.779,60.408 148.021,61.874C149.792,63.966 152.127,63.738 153.501,63.794Z" style="fill:white;"/>
                </g>
                <g transform="matrix(2.7194,0,0,2.7194,125.144326,1253.387784)">
                    <path d="M520.04,53.5C520.035,61.233 519.363,63.369 525.468,63.821C528.217,64.025 527.702,66.384 527.711,68.5C527.726,72.239 526.229,71.646 522.499,71.603C510.571,71.467 511.604,62.106 511.519,56.499C511.409,49.305 511.441,35.34 511.445,33.5C511.481,17.86 511.324,17.85 511.572,16.514C511.851,15.016 512.698,15.029 517.492,14.944C520.152,14.896 519.918,15.833 520.031,18.496C520.06,19.16 520.041,45.179 520.04,47.499C520.038,50.508 519.97,50.485 520.04,53.5Z" style="fill:rgb(16,108,252);"/>
                </g>
                <g transform="matrix(2.7194,0,0,2.7194,125.144326,1253.387784)">
                    <path d="M173.117,59.503C173.141,70.093 173.269,70.496 172.321,71.218C171.753,71.65 168.758,71.587 167.499,71.576C163.864,71.542 164.439,70.131 164.413,66.5C164.39,63.157 164.34,34.01 164.432,33.488C164.709,31.91 166.31,31.855 166.523,31.848C166.764,31.84 171.08,31.8 171.386,31.931C173.322,32.761 172.427,33.393 172.52,35.494C172.559,36.369 172.628,36.559 173.501,36.508C174.598,36.443 174.575,35.092 176.543,33.562C179.146,31.537 186.053,29.971 186.94,32.261C187.091,32.651 187.3,33.191 187.195,37.484C187.117,40.674 185.691,39.707 182.523,39.827C181.777,39.855 176.55,40.054 174.424,44.461C172.924,47.572 173.101,48.849 173.117,59.503Z" style="fill:white;"/>
                </g>
                <g transform="matrix(2.7194,0,0,2.7194,125.144326,1253.387784)">
                    <path d="M365.735,48.504C365.836,37.536 365.525,33.62 365.944,32.722C366.167,32.244 366.471,31.593 372.478,31.861C372.626,31.868 373.703,31.916 374.134,32.71C374.592,33.555 374.356,33.613 374.401,66.5C374.406,70.1 375.1,71.571 371.501,71.595C368.007,71.619 365.918,72.055 365.731,69.479C365.634,68.152 365.726,50.182 365.735,48.504Z" style="fill:rgb(16,108,252);"/>
                </g>
                <g transform="matrix(2.7194,0,0,2.7194,125.144326,1253.387784)">
                    <path d="M374.64,17.428C374.813,18.086 375.851,20.057 374.588,22.552C372.64,26.398 364.577,25.501 364.922,19.525C365.194,14.834 371.347,13.464 374.198,16.732C374.379,16.939 374.459,17.221 374.64,17.428Z" style="fill:rgb(19,106,251);"/>
                </g>
            </g>
            <g transform="matrix(0.317212,0,0,0.317212,9.952158,705.096618)">
                <path d="M756.54,1024.097C717.332,978.209 693.646,918.67 693.646,853.642C693.646,816.702 701.289,781.534 715.079,749.634L772.415,787.528C765.021,808.191 760.992,830.45 760.992,853.642C760.992,936.185 812.017,1006.904 884.219,1035.952L875.911,1151.374L756.54,1024.097Z" style="fill:white;"/>
                <path d="M1197.459,749.634C1211.248,781.534 1218.891,816.702 1218.891,853.642C1218.891,918.67 1195.205,978.209 1155.998,1024.097L1036.627,1151.374L1028.382,1036.835C1101.762,1008.357 1153.841,937.033 1153.841,853.642C1153.841,829.991 1149.652,807.311 1141.976,786.303L1197.459,749.634Z" style="fill:white;"/>
                <path d="M956.269,1237.054L919.873,1198.247L925.9,1114.523C935.864,1115.673 945.998,1116.264 956.269,1116.264C966.539,1116.264 976.673,1115.673 986.638,1114.523L992.665,1198.247L956.269,1237.054Z" style="fill:white;"/>
                <path d="M736.536,709.834C776.485,648.952 841.046,605.639 916.027,594.089C929.147,592.068 942.586,591.019 956.269,591.019C969.951,591.019 983.391,592.068 996.511,594.089C1071.491,605.639 1136.052,648.952 1176.001,709.834L1121.578,745.803C1094.19,704.217 1051.429,673.635 1001.412,662.172C987.266,658.93 972.54,657.217 957.417,657.217C941.459,657.217 925.944,659.124 911.086,662.722C861.652,674.694 819.497,705.388 792.563,746.862L736.536,709.834Z" style="fill:rgb(17,107,252);"/>
                <path d="M1004.074,699.153C1040.431,710.385 1071.201,734.396 1091.128,765.928L1046.922,795.144C1037.26,780.21 1024.009,767.81 1008.394,759.17C992.939,750.617 975.168,745.748 956.269,745.748C937.369,745.748 919.598,750.617 904.143,759.17C888.528,767.81 875.277,780.21 865.615,795.144L823.034,767.001C842.512,735.626 872.669,711.56 908.41,699.899C923.841,694.864 940.314,692.142 957.417,692.142C973.655,692.142 989.324,694.596 1004.074,699.153Z" style="fill:rgb(16,110,252);"/>
                <path d="M978.884,1006.805C971.864,1007.76 964.697,1008.253 957.417,1008.253C949.349,1008.253 941.421,1007.647 933.677,1006.479L937.036,959.823C943.277,960.948 949.705,961.536 956.269,961.536C962.833,961.536 969.26,960.948 975.502,959.823L978.884,1006.805Z" style="fill:white;"/>
                <g transform="matrix(1.240807,0,0,1.240807,-230.278862,-160.410556)">
                    <path d="M978.884,1006.805C971.864,1007.76 964.697,1008.253 957.417,1008.253C949.349,1008.253 941.421,1007.647 933.677,1006.479L937.036,959.823C943.277,960.948 949.705,961.536 956.269,961.536C962.833,961.536 969.26,960.948 975.502,959.823L978.884,1006.805Z" style="fill:white;"/>
                </g>
                <g transform="matrix(0.877939,0,0,0.877939,116.723268,93.859506)">
                    <path d="M911.332,825.359C920.739,810.453 937.356,800.543 956.269,800.543C975.182,800.543 991.799,810.453 1001.206,825.359C1006.375,833.55 1009.367,843.249 1009.367,853.642C1009.367,862.331 1007.275,870.536 1003.568,877.779C997.034,890.547 985.482,900.328 971.52,904.513C966.689,905.962 961.569,906.74 956.269,906.74C950.968,906.74 945.848,905.962 941.017,904.513C927.056,900.328 915.503,890.547 908.969,877.779C905.262,870.536 903.17,862.331 903.17,853.642C903.17,843.249 906.162,833.55 911.332,825.359Z" style="fill:rgb(13,104,251);"/>
                </g>
            </g>
        </g>
    </g>
</svg>
